<svg xmlns="http://www.w3.org/2000/svg" width="35.828" height="35.828" viewBox="0 0 35.828 35.828">
  <g id="insta_logo" data-name="insta logo" transform="translate(-376.84 -722.907)">
    <path id="Path_952" data-name="Path 952" d="M404.179,729.5a2.106,2.106,0,1,0,2.107,2.106A2.106,2.106,0,0,0,404.179,729.5Zm-9.364,2.7a8.848,8.848,0,1,0,8.848,8.847A8.858,8.858,0,0,0,394.815,732.205Zm0,14.515a5.667,5.667,0,1,1,5.668-5.668A5.674,5.674,0,0,1,394.815,746.72ZM412.668,733.7a10.792,10.792,0,0,0-10.792-10.792H387.633A10.793,10.793,0,0,0,376.84,733.7v14.245a10.792,10.792,0,0,0,10.793,10.791h14.243a10.791,10.791,0,0,0,10.792-10.791Zm-3.38,14.245a7.411,7.411,0,0,1-7.412,7.411H387.633a7.412,7.412,0,0,1-7.413-7.411V733.7a7.413,7.413,0,0,1,7.413-7.412h14.243a7.412,7.412,0,0,1,7.412,7.412Z" fill="#f6f6f6"/>
  </g>
</svg>
