<svg xmlns="http://www.w3.org/2000/svg" width="209.719" height="286.015" viewBox="0 0 209.719 286.015">
  <path id="Path_949" data-name="Path 949" d="M-2036.053-4394.513l-168.521-122.5a20.315,20.315,0,0,0-21.173-1.673,20.264,20.264,0,0,0-11.1,18.066V-4255.7a20.259,20.259,0,0,0,11.1,18.123,20.458,20.458,0,0,0,9.237,2.188,20.184,20.184,0,0,0,11.936-3.944l168.521-122.39a20.369,20.369,0,0,0,8.426-16.393A20.166,20.166,0,0,0-2036.053-4394.513Z" transform="translate(2237.096 4521.159)" fill="#fff" stroke="#fff" stroke-width="0.5" opacity="0.79"/>
</svg>
